<svg width="41" height="40" viewBox="0 0 41 40" fill="none" xmlns="http://www.w3.org/2000/svg">
<rect x="0.738281" width="40" height="40" rx="4" fill="#F2F4F7"/>
<path d="M20.7363 15.1931C18.0762 15.1931 15.9293 17.34 15.9293 20.0001C15.9293 22.6603 18.0762 24.8072 20.7363 24.8072C23.3965 24.8072 25.5433 22.6603 25.5433 20.0001C25.5433 17.34 23.3965 15.1931 20.7363 15.1931ZM20.7363 23.1244C19.016 23.1244 17.6121 21.7204 17.6121 20.0001C17.6121 18.2798 19.016 16.8759 20.7363 16.8759C22.4566 16.8759 23.8605 18.2798 23.8605 20.0001C23.8605 21.7204 22.4566 23.1244 20.7363 23.1244ZM25.7402 13.8759C25.1191 13.8759 24.6176 14.3775 24.6176 14.9986C24.6176 15.6197 25.1191 16.1212 25.7402 16.1212C26.3613 16.1212 26.8629 15.622 26.8629 14.9986C26.8631 14.8511 26.8342 14.705 26.7778 14.5687C26.7214 14.4324 26.6388 14.3086 26.5345 14.2043C26.4302 14.1 26.3064 14.0174 26.1701 13.961C26.0338 13.9046 25.8877 13.8757 25.7402 13.8759ZM30.1066 20.0001C30.1066 18.7064 30.1183 17.4244 30.0457 16.1329C29.973 14.6329 29.6308 13.3017 28.534 12.2048C27.4348 11.1056 26.1058 10.7658 24.6058 10.6931C23.3121 10.6204 22.0301 10.6322 20.7387 10.6322C19.4449 10.6322 18.1629 10.6204 16.8715 10.6931C15.3715 10.7658 14.0402 11.1079 12.9433 12.2048C11.8441 13.304 11.5043 14.6329 11.4316 16.1329C11.359 17.4267 11.3707 18.7087 11.3707 20.0001C11.3707 21.2915 11.359 22.5759 11.4316 23.8673C11.5043 25.3673 11.8465 26.6986 12.9433 27.7954C14.0426 28.8947 15.3715 29.2345 16.8715 29.3072C18.1652 29.3798 19.4473 29.3681 20.7387 29.3681C22.0324 29.3681 23.3144 29.3798 24.6058 29.3072C26.1058 29.2345 27.4371 28.8923 28.534 27.7954C29.6332 26.6962 29.973 25.3673 30.0457 23.8673C30.1207 22.5759 30.1066 21.2939 30.1066 20.0001ZM28.0441 25.5267C27.873 25.9533 27.6668 26.272 27.3363 26.6001C27.0058 26.9306 26.6894 27.1369 26.2629 27.3079C25.0301 27.7978 22.1027 27.6876 20.7363 27.6876C19.3699 27.6876 16.4402 27.7978 15.2074 27.3103C14.7808 27.1392 14.4621 26.9329 14.134 26.6025C13.8035 26.272 13.5973 25.9556 13.4262 25.529C12.9387 24.2939 13.0488 21.3665 13.0488 20.0001C13.0488 18.6337 12.9387 15.704 13.4262 14.4712C13.5973 14.0447 13.8035 13.7259 14.134 13.3978C14.4644 13.0697 14.7808 12.8611 15.2074 12.69C16.4402 12.2025 19.3699 12.3126 20.7363 12.3126C22.1027 12.3126 25.0324 12.2025 26.2652 12.69C26.6918 12.8611 27.0105 13.0673 27.3387 13.3978C27.6691 13.7283 27.8754 14.0447 28.0465 14.4712C28.534 15.704 28.4238 18.6337 28.4238 20.0001C28.4238 21.3665 28.534 24.2939 28.0441 25.5267Z" fill="#294F74"/>
</svg>
