<svg width="41" height="40" viewBox="0 0 41 40" fill="none" xmlns="http://www.w3.org/2000/svg">
<rect x="0.738281" width="40" height="40" rx="4" fill="#F2F4F7"/>
<rect x="10.9209" y="9.97021" width="19.64" height="19.64" rx="2.41325" stroke="#294F74"/>
<path fill-rule="evenodd" clip-rule="evenodd" d="M15.9313 16.5047C16.3376 16.5047 16.7272 16.3433 17.0145 16.056C17.3018 15.7687 17.4632 15.3791 17.4632 14.9728C17.4632 14.5665 17.3018 14.1769 17.0145 13.8896C16.7272 13.6023 16.3376 13.4409 15.9313 13.4409C15.525 13.4409 15.1354 13.6023 14.8481 13.8896C14.5608 14.1769 14.3994 14.5665 14.3994 14.9728C14.3994 15.3791 14.5608 15.7687 14.8481 16.056C15.1354 16.3433 15.525 16.5047 15.9313 16.5047ZM17.2132 26.1396V17.7059H14.6494V26.1396H17.2132ZM18.9156 17.7059H21.4794V18.8352C21.8576 18.243 22.6883 17.4456 24.233 17.4456C26.0764 17.4456 27.0776 18.6673 27.0776 20.9914C27.0776 21.1029 27.0878 21.6119 27.0878 21.6119V26.1383H24.524V21.6131C24.524 20.9914 24.3932 19.7697 23.0113 19.7697C21.6281 19.7697 21.5115 21.3055 21.4794 22.3105V26.1383H18.9156V17.7059Z" fill="#294F74"/>
<path d="M17.2132 26.1396V17.7059H14.6494V26.1396H17.2132Z" fill="#294F74"/>
<path d="M18.9156 17.7059H21.4794V18.8352C21.8576 18.243 22.6883 17.4456 24.233 17.4456C26.0764 17.4456 27.0776 18.6673 27.0776 20.9914C27.0776 21.1029 27.0878 21.6119 27.0878 21.6119V26.1383H24.524V21.6131C24.524 20.9914 24.3932 19.7697 23.0113 19.7697C21.6281 19.7697 21.5115 21.3055 21.4794 22.3105V26.1383H18.9156V17.7059Z" fill="#294F74"/>
<path d="M15.9313 16.5047C16.3376 16.5047 16.7272 16.3433 17.0145 16.056C17.3018 15.7687 17.4632 15.3791 17.4632 14.9728C17.4632 14.5665 17.3018 14.1769 17.0145 13.8896C16.7272 13.6023 16.3376 13.4409 15.9313 13.4409C15.525 13.4409 15.1354 13.6023 14.8481 13.8896C14.5608 14.1769 14.3994 14.5665 14.3994 14.9728C14.3994 15.3791 14.5608 15.7687 14.8481 16.056C15.1354 16.3433 15.525 16.5047 15.9313 16.5047Z" fill="#294F74"/>
</svg>
