<svg width="41" height="40" viewBox="0 0 41 40" fill="none" xmlns="http://www.w3.org/2000/svg">
<rect x="0.738281" width="40" height="40" rx="4" fill="#F2F4F7"/>
<path d="M29.182 12.7413L29.7868 12.7014C29.779 12.5826 29.7363 12.4688 29.6641 12.3742C29.5918 12.2796 29.4933 12.2084 29.3808 12.1695C29.2684 12.1307 29.1469 12.1258 29.0317 12.1557C28.9165 12.1855 28.8126 12.2486 28.7331 12.3372L29.182 12.7413ZM28.5795 16.3211C28.5795 16.1606 28.5158 16.0068 28.4023 15.8933C28.2889 15.7799 28.1351 15.7162 27.9746 15.7162C27.8142 15.7162 27.6604 15.7799 27.5469 15.8933C27.4335 16.0068 27.3698 16.1606 27.3698 16.3211H28.5795ZM12.2722 26.0491V25.4442C12.1424 25.444 12.0159 25.4857 11.9115 25.563C11.8071 25.6403 11.7304 25.7491 11.6927 25.8734C11.655 25.9977 11.6583 26.1308 11.7021 26.2531C11.7459 26.3754 11.8279 26.4803 11.9359 26.5523L12.2722 26.0491ZM13.4796 12.7413L14.0469 12.5296C14.0057 12.4191 13.9331 12.3231 13.838 12.2534C13.743 12.1837 13.6296 12.1432 13.5119 12.1371C13.3942 12.1309 13.2772 12.1593 13.1754 12.2187C13.0736 12.2781 12.9913 12.366 12.9388 12.4715L13.4796 12.7413ZM18.3113 23.6295L18.7395 24.0565C18.8122 23.9836 18.865 23.8934 18.8931 23.7944C18.9211 23.6954 18.9235 23.5908 18.8998 23.4907C18.8762 23.3905 18.8274 23.298 18.7581 23.2219C18.6888 23.1459 18.6012 23.0888 18.5036 23.056L18.3113 23.6295ZM27.0504 13.9184L26.6028 14.3249L26.8206 14.5657L27.1411 14.5173L27.0504 13.9184ZM28.5795 12.7812C28.6412 13.7224 28.5831 14.2935 28.4307 14.7241C28.2831 15.1415 28.0242 15.4851 27.5561 15.9339L28.3932 16.8074C28.9231 16.2993 29.332 15.8009 29.5715 15.1282C29.805 14.4677 29.8534 13.7031 29.7868 12.7014L28.5795 12.7812ZM28.5795 17.2018V16.3211H27.3698V17.203H28.5795V17.2018ZM20.1234 16.4203V17.5805H21.3332V16.4203H20.1234ZM20.1234 17.5805V18.1854H21.3332V17.5805H20.1234ZM24.3999 12.1364C23.8376 12.1367 23.281 12.2478 22.7617 12.4632C22.2424 12.6787 21.7706 12.9943 21.3733 13.3921C20.9759 13.7899 20.6608 14.2621 20.446 14.7816C20.2311 15.3012 20.1207 15.858 20.121 16.4203H21.3308C21.3304 16.0168 21.4096 15.6172 21.5638 15.2443C21.7179 14.8715 21.944 14.5326 22.2291 14.2471C22.5142 13.9617 22.8528 13.7352 23.2255 13.5806C23.5981 13.426 23.9976 13.3463 24.4011 13.3462V12.1364H24.3999ZM27.3686 17.2018C27.3698 22.4233 23.1442 26.654 17.9338 26.654V27.8638C23.8131 27.8638 28.5795 23.0899 28.5795 17.2018H27.3686ZM12.9134 12.953C13.5715 14.7096 16.0394 18.1854 20.7283 18.1854V16.9756C16.7168 16.9756 14.5961 13.9995 14.0457 12.5296L12.9134 12.953ZM12.9388 12.4715C11.6722 15.0072 11.4774 17.468 12.398 19.5633C13.3162 21.6527 15.2917 23.2593 18.1201 24.2029L18.5036 23.056C15.8966 22.185 14.2477 20.7671 13.505 19.0758C12.7646 17.3905 12.8723 15.3133 14.0215 13.0111L12.9388 12.4715ZM17.883 23.2024C17.1547 23.9319 14.9651 25.4442 12.2722 25.4442V26.654C15.3764 26.654 17.8576 24.9409 18.7395 24.0565L17.883 23.2024ZM27.4992 13.5131C27.1081 13.0794 26.6302 12.7326 26.0965 12.4955C25.5627 12.2583 24.9851 12.136 24.4011 12.1364V13.3462C25.2733 13.3462 26.0584 13.7224 26.6028 14.3249L27.4992 13.5131ZM27.1411 14.5173C28.1047 14.3598 28.9848 13.8754 29.6332 13.1454L28.7331 12.3372C28.2719 12.8583 27.6459 13.2055 26.9597 13.3208L27.1411 14.5173ZM11.9359 26.5523C13.9211 27.8759 16.0019 27.8638 17.9338 27.8638V26.654C15.9619 26.654 14.2465 26.6407 12.6085 25.5458L11.9359 26.5523Z" fill="#294F74"/>
</svg>
